<svg xmlns="http://www.w3.org/2000/svg" viewBox="0 0 512 512"><defs><style>.a{fill:#349b1f;}.b{fill:#606060;}.c{fill:#727272;}.d{fill:#247316;}</style></defs><title>UFO</title><path class="a" d="M256,310.77c55.12,0,106.79,7,145.5,19.75,33.56,11,54.41,26,54.41,39s-20.85,27.91-54.41,38.95c-38.71,12.73-90.38,19.74-145.5,19.74s-106.79-7-145.5-19.74c-33.56-11-54.41-26-54.41-38.95s20.85-27.92,54.41-39c38.71-12.74,90.38-19.75,145.5-19.75m0-10.51c-116.21,0-210.42,31-210.42,69.21S139.79,438.68,256,438.68s210.42-31,210.42-69.21S372.21,300.26,256,300.26Z"/><path class="a" d="M256,345.09v8.39c44,0,85.23,5.59,116.12,15.75C398.9,378,415.54,390,415.54,400.32s-16.64,22.28-43.42,31.09C341.23,441.57,300,447.16,256,447.16s-85.23-5.59-116.12-15.75c-26.78-8.81-43.42-20.72-43.42-31.09S113.1,378,139.88,369.23C170.77,359.07,212,353.48,256,353.48v-8.39m0,0c-92.74,0-167.93,24.72-167.93,55.23S163.26,455.55,256,455.55s167.93-24.72,167.93-55.23S348.74,345.09,256,345.09Z"/><path class="a" d="M256,247.06c67.29,0,130.41,8.57,177.73,24.13,42.43,14,67.75,32.48,67.75,49.55s-25.32,35.6-67.75,49.56C386.41,385.86,323.29,394.43,256,394.43h0c-67.29,0-130.41-8.57-177.73-24.14-42.43-14-67.75-32.47-67.75-49.55s25.32-35.59,67.75-49.55c47.32-15.56,110.44-24.13,177.73-24.13h0m0-10.52c-141.38,0-256,37.7-256,84.2S114.62,405,256,405s256-37.7,256-84.21-114.62-84.2-256-84.2Z"/><ellipse class="b" cx="256" cy="279.77" rx="256" ry="84.2"/><ellipse class="c" cx="256" cy="212.05" rx="145.12" ry="47.73"/><path class="d" d="M256,238.27c-86.32,0-133.86-15.17-133.86-42.71C122.14,121.75,182.19,61.7,256,61.7s133.86,60.05,133.86,133.86c0,15.17-12.08,26-36.94,33.17C330.61,235.15,298.91,238.27,256,238.27Z"/><path class="a" d="M256,67h0a128.61,128.61,0,0,1,128.6,128.6c0,6.18-2.35,11.16-7.41,15.67-5.55,5-14.21,9.14-25.73,12.45C329.64,230,298.41,233,256,233h0c-40.87,0-72.95-3.38-95.37-10-11.55-3.44-20.25-7.69-25.88-12.63-5-4.41-7.35-9.1-7.35-14.77A128.6,128.6,0,0,1,256,67h0m0-10.51A139.12,139.12,0,0,0,116.88,195.56c0,36,62.29,48,139.12,48s139.12-10,139.12-48A139.12,139.12,0,0,0,256,56.45Z"/></svg>